<svg width="310" height="200" viewBox="0 0 310 200" fill="none" xmlns="http://www.w3.org/2000/svg">
<rect width="310" height="200" fill="#EDF0F7"/>
<path fill-rule="evenodd" clip-rule="evenodd" d="M145 93.1667C145 90.8655 146.865 89 149.167 89C151.468 89 153.333 90.8655 153.333 93.1667C153.333 95.4679 151.468 97.3333 149.167 97.3333C146.865 97.3333 145 95.4679 145 93.1667ZM149.167 92.3333C148.706 92.3333 148.333 92.7064 148.333 93.1667C148.333 93.6269 148.706 94 149.167 94C149.627 94 150 93.6269 150 93.1667C150 92.7064 149.627 92.3333 149.167 92.3333Z" fill="#2D3648"/>
<path fill-rule="evenodd" clip-rule="evenodd" d="M138.333 87.3333C138.333 84.5719 140.572 82.3333 143.333 82.3333H166.667C169.428 82.3333 171.667 84.5719 171.667 87.3333V110.667C171.667 113.428 169.428 115.667 166.667 115.667H143.333C140.572 115.667 138.333 113.428 138.333 110.667V87.3333ZM143.333 85.6667C142.413 85.6667 141.667 86.4129 141.667 87.3333V110.667C141.667 111.381 142.117 111.991 142.749 112.228L160.488 94.4882C161.139 93.8373 162.194 93.8373 162.845 94.4882L168.333 99.9762V87.3333C168.333 86.4129 167.587 85.6667 166.667 85.6667H143.333ZM168.333 104.69L161.667 98.0237L147.357 112.333H166.667C167.587 112.333 168.333 111.587 168.333 110.667V104.69Z" fill="#2D3648"/>
</svg>
