<svg width="31" height="24" viewBox="0 0 31 24" fill="none" xmlns="http://www.w3.org/2000/svg">
<path d="M22.7298 15.5148C24.568 13.5326 25.3913 11.0751 25.035 8.63383C24.6787 6.19257 23.1691 3.94764 20.8082 2.34816C18.4473 0.74868 15.4092 -0.0873826 12.3018 0.00723687C9.19432 0.101856 6.24666 1.12018 4.04851 2.85848C1.85036 4.59677 0.563833 6.92685 0.446321 9.38254C0.328808 11.8382 1.38897 14.2384 3.41472 16.1029C5.44046 17.9675 8.28239 19.1588 11.3719 19.4386C14.4615 19.7184 17.5708 19.066 20.0778 17.612H20.0759C20.1329 17.672 20.1936 17.729 20.2619 17.7846L27.5707 23.5602C27.9266 23.8416 28.4095 23.9999 28.9131 24C29.4167 24.0001 29.8997 23.8422 30.2559 23.5609C30.6121 23.2796 30.8123 22.898 30.8125 22.5001C30.8127 22.1021 30.6128 21.7204 30.2568 21.4389L22.9481 15.6633C22.8803 15.609 22.8073 15.5604 22.7298 15.5148ZM23.2196 9.74823C23.2196 10.8317 22.9495 11.9047 22.4248 12.9057C21.9001 13.9067 21.131 14.8163 20.1615 15.5825C19.192 16.3486 18.041 16.9564 16.7742 17.371C15.5074 17.7857 14.1497 17.9991 12.7786 17.9991C11.4075 17.9991 10.0497 17.7857 8.78298 17.371C7.51622 16.9564 6.36521 16.3486 5.39567 15.5825C4.42613 14.8163 3.65706 13.9067 3.13235 12.9057C2.60764 11.9047 2.33757 10.8317 2.33757 9.74823C2.33757 7.55997 3.4376 5.46133 5.39567 3.91399C7.35374 2.36666 10.0095 1.49738 12.7786 1.49738C15.5477 1.49738 18.2034 2.36666 20.1615 3.91399C22.1196 5.46133 23.2196 7.55997 23.2196 9.74823Z" fill="black"/>
</svg>
