<svg width="68" height="85" viewBox="0 0 68 85" fill="none" xmlns="http://www.w3.org/2000/svg">
<path d="M44.2568 26.5113L49.2229 47.4188C45.2417 48.4447 39.9317 49.114 33.9912 49.114C28.0507 49.114 22.7459 48.4447 18.7596 47.4188L23.7256 26.5113C26.8782 26.9337 30.3435 27.1696 33.9912 27.1696C37.6389 27.1696 41.1042 26.9337 44.2568 26.5113ZM42.9801 21.1459L39.0458 4.56683C37.7327 -0.974141 30.2497 -0.974141 28.9366 4.56683L25.0023 21.1349C27.738 21.4915 30.7708 21.6835 33.9912 21.6835C37.2116 21.6835 40.2444 21.486 42.9801 21.1459ZM65.8875 68.3977C66.4358 68.5407 66.9252 68.8673 67.2818 69.3285C67.6385 69.7897 67.8431 70.3605 67.8649 70.9547C67.8866 71.549 67.7243 72.1346 67.4025 72.6234C67.0806 73.1121 66.6166 73.4774 66.0803 73.6644L34.8145 84.6366C34.2801 84.824 33.7023 84.824 33.1679 84.6366L1.90208 73.6644C1.36583 73.4774 0.901804 73.1121 0.579933 72.6234C0.258062 72.1346 0.0957789 71.549 0.117534 70.9547C0.13929 70.3605 0.343906 69.7897 0.700552 69.3285C1.0572 68.8673 1.54655 68.5407 2.09489 68.3977L14.5543 65.117L17.4985 52.7349C21.9903 53.8979 27.7328 54.5947 33.9912 54.5947C40.2496 54.5947 45.9921 53.8979 50.4839 52.7349L53.4281 65.117L65.8875 68.3977Z" fill="black"/>
</svg>
