<svg width="82" height="97" viewBox="0 0 82 97" fill="none" xmlns="http://www.w3.org/2000/svg">
<path d="M52.9427 29.7344L58.8989 53.5531C54.1239 54.7219 47.7552 55.4844 40.6302 55.4844C33.5052 55.4844 27.1427 54.7219 22.3614 53.5531L28.3177 29.7344C32.0989 30.2156 36.2552 30.4844 40.6302 30.4844C45.0052 30.4844 49.1614 30.2156 52.9427 29.7344ZM51.4114 23.6219L46.6927 4.73437C45.1177 -1.57812 36.1427 -1.57812 34.5677 4.73437L29.8489 23.6094C33.1302 24.0156 36.7677 24.2344 40.6302 24.2344C44.4927 24.2344 48.1302 24.0094 51.4114 23.6219ZM78.8864 77.4531C79.5441 77.616 80.131 77.9881 80.5588 78.5135C80.9866 79.0389 81.232 79.6891 81.2581 80.3662C81.2842 81.0432 81.0895 81.7104 80.7035 82.2671C80.3174 82.8239 79.7609 83.2402 79.1177 83.4531L41.6177 95.9531C40.9767 96.1666 40.2837 96.1666 39.6427 95.9531L2.14269 83.4531C1.49951 83.2402 0.942968 82.8239 0.556918 82.2671C0.170868 81.7104 -0.023774 81.0432 0.00231951 80.3662C0.028413 79.6891 0.273828 79.0389 0.701588 78.5135C1.12935 77.9881 1.71628 77.616 2.37394 77.4531L17.3177 73.7156L20.8489 59.6094C26.2364 60.9344 33.1239 61.7281 40.6302 61.7281C48.1364 61.7281 55.0239 60.9344 60.4114 59.6094L63.9427 73.7156L78.8864 77.4531Z" fill="black"/>
</svg>
